<?xml version="1.0" encoding="utf-8"?>
<!-- Generator: Adobe Illustrator 16.0.0, SVG Export Plug-In . SVG Version: 6.00 Build 0)  -->
<!DOCTYPE svg PUBLIC "-//W3C//DTD SVG 1.1//EN" "http://www.w3.org/Graphics/SVG/1.1/DTD/svg11.dtd">
<svg version="1.1" id="Layer_1" xmlns="http://www.w3.org/2000/svg" xmlns:xlink="http://www.w3.org/1999/xlink" x="0px" y="0px"
	 width="56.283px" height="53.796px" viewBox="0 0 56.283 53.796" enable-background="new 0 0 56.283 53.796" xml:space="preserve">
<path fill="#FFFFFF" d="M12.779,53.425V17.128H0.714v36.297H12.779L12.779,53.425z M6.747,12.173c4.207,0,6.826-2.791,6.826-6.272
	C13.494,2.34,10.953-0.37,6.827-0.37C2.698-0.37,0,2.341,0,5.901c0,3.483,2.618,6.272,6.668,6.272H6.747L6.747,12.173z"/>
<path fill="#FFFFFF" d="M19.455,53.425h12.066v-20.27c0-1.086,0.078-2.17,0.398-2.943c0.871-2.168,2.854-4.414,6.188-4.414
	c4.366,0,6.112,3.33,6.112,8.209v19.418h12.062V32.614c0-11.149-5.953-16.338-13.892-16.338c-6.508,0-9.365,3.642-10.953,6.116
	h0.081v-5.264H19.455C19.614,20.531,19.455,53.425,19.455,53.425L19.455,53.425z"/>
</svg>
