<?xml version="1.0" encoding="utf-8"?>
<!-- Generator: Adobe Illustrator 16.0.0, SVG Export Plug-In . SVG Version: 6.00 Build 0)  -->
<!DOCTYPE svg PUBLIC "-//W3C//DTD SVG 1.1//EN" "http://www.w3.org/Graphics/SVG/1.1/DTD/svg11.dtd">
<svg version="1.1" id="Layer_1" xmlns="http://www.w3.org/2000/svg" xmlns:xlink="http://www.w3.org/1999/xlink" x="0px" y="0px"
	 width="56.283px" height="53.796px" viewBox="2.858 18.204 56.283 53.796" enable-background="new 2.858 18.204 56.283 53.796"
	 xml:space="preserve">
<path fill="#231F20" d="M15.636,72V35.702H3.572V72H15.636L15.636,72z M9.604,30.747c4.207,0,6.826-2.79,6.826-6.272
	c-0.079-3.561-2.62-6.271-6.746-6.271c-4.129,0-6.826,2.711-6.826,6.271c0,3.483,2.618,6.272,6.668,6.272H9.604L9.604,30.747z"/>
<path fill="#231F20" d="M22.312,72h12.066V51.73c0-1.086,0.078-2.17,0.398-2.944c0.871-2.168,2.855-4.413,6.189-4.413
	c4.366,0,6.112,3.33,6.112,8.208V72h12.063V51.188c0-11.149-5.953-16.338-13.892-16.338c-6.508,0-9.365,3.641-10.953,6.117h0.081
	v-5.264H22.312C22.471,39.105,22.312,72,22.312,72L22.312,72z"/>
</svg>
