<?xml version="1.0" encoding="utf-8"?>
<!-- Generator: Adobe Illustrator 16.0.0, SVG Export Plug-In . SVG Version: 6.00 Build 0)  -->
<!DOCTYPE svg PUBLIC "-//W3C//DTD SVG 1.1//EN" "http://www.w3.org/Graphics/SVG/1.1/DTD/svg11.dtd">
<svg version="1.1" id="Layer_1" xmlns="http://www.w3.org/2000/svg" xmlns:xlink="http://www.w3.org/1999/xlink" x="0px" y="0px"
	 width="258.879px" height="258.878px" viewBox="0 0 258.879 258.878" enable-background="new 0 0 258.879 258.878"
	 xml:space="preserve">
<path fill="#231F20" d="M129.439,0C57.952,0,0,57.952,0,129.439c0,71.488,57.952,129.439,129.439,129.439
	s129.439-57.951,129.439-129.439C258.879,57.952,200.927,0,129.439,0z M129.439,237.465c-59.661,0-108.026-48.364-108.026-108.026
	c0-59.661,48.365-108.026,108.026-108.026c59.662,0,108.027,48.365,108.027,108.026
	C237.467,189.101,189.102,237.465,129.439,237.465z"/>
<path fill="#231F20" d="M205.052,81.87h-35.03c-4.618-18.108-21.036-31.5-40.582-31.5c-19.546,0-35.963,13.392-40.582,31.5H53.827
	c-7.588,0-13.74,6.151-13.74,13.739v81.669c0,7.588,6.152,13.74,13.74,13.74h151.225c7.588,0,13.74-6.152,13.74-13.74V95.609
	C218.792,88.021,212.64,81.87,205.052,81.87z M129.44,67.651c9.876,0,18.387,5.822,22.302,14.218h-44.604
	C111.053,73.473,119.564,67.651,129.44,67.651z"/>
</svg>
