<?xml version="1.0" encoding="utf-8"?>
<!-- Generator: Adobe Illustrator 17.1.0, SVG Export Plug-In . SVG Version: 6.00 Build 0)  -->
<!DOCTYPE svg PUBLIC "-//W3C//DTD SVG 1.1//EN" "http://www.w3.org/Graphics/SVG/1.1/DTD/svg11.dtd">
<svg version="1.1" id="Layer_1" xmlns="http://www.w3.org/2000/svg" xmlns:xlink="http://www.w3.org/1999/xlink" x="0px" y="0px"
	 viewBox="-2.3 18.3 66.3 55.3" enable-background="new -2.3 18.3 66.3 55.3" xml:space="preserve">
<path fill="#231F20" d="M62.3,27.4c-2.3,1-4.8,1.7-7.3,2c2.6-1.6,4.7-4.1,5.6-7.1c-2.5,1.5-5.2,2.5-8.1,3.1c-2.3-2.5-5.7-4-9.3-4
	c-7.1,0-12.8,5.7-12.8,12.8c0,1,0.1,2,0.3,2.9c-10.6-0.5-20-5.6-26.3-13.3c-1.1,1.9-1.7,4.1-1.7,6.4c0,4.4,2.3,8.3,5.7,10.6
	c-2.1-0.1-4.1-0.6-5.8-1.6c0,0.1,0,0.1,0,0.2c0,6.2,4.4,11.4,10.2,12.5c-1.1,0.3-2.2,0.4-3.4,0.4c-0.8,0-1.6-0.1-2.4-0.2
	c1.6,5.1,6.3,8.8,11.9,8.9C14.5,64.4,9,66.4,3,66.4c-1,0-2-0.1-3-0.2C5.7,69.9,12.4,72,19.6,72c23.5,0,36.3-19.5,36.3-36.3
	c0-0.6,0-1.1,0-1.7C58.4,32.2,60.5,30,62.3,27.4z"/>
</svg>
