<?xml version="1.0" encoding="utf-8"?>
<!-- Generator: Adobe Illustrator 16.0.0, SVG Export Plug-In . SVG Version: 6.00 Build 0)  -->
<!DOCTYPE svg PUBLIC "-//W3C//DTD SVG 1.1//EN" "http://www.w3.org/Graphics/SVG/1.1/DTD/svg11.dtd">
<svg version="1.1" id="Layer_1" xmlns="http://www.w3.org/2000/svg" xmlns:xlink="http://www.w3.org/1999/xlink" x="0px" y="0px"
	 width="62.262px" height="50.6px" viewBox="0 0 62.262 50.6" enable-background="new 0 0 62.262 50.6" xml:space="preserve">
<path fill="#FFFFFF" d="M62.262,5.989C59.973,7.004,57.51,7.692,54.926,8c2.637-1.581,4.662-4.084,5.617-7.066
	c-2.469,1.464-5.203,2.526-8.111,3.1c-2.332-2.481-5.649-4.034-9.325-4.034c-7.056,0-12.773,5.72-12.773,12.774
	c0,1,0.112,1.976,0.331,2.911C20.048,15.152,10.635,10.067,4.335,2.339c-1.101,1.886-1.73,4.08-1.73,6.422
	c0,4.432,2.255,8.341,5.684,10.631c-2.095-0.063-4.063-0.643-5.785-1.598C2.5,17.847,2.5,17.901,2.5,17.954
	c0,6.188,4.402,11.352,10.248,12.524c-1.072,0.292-2.2,0.447-3.366,0.447c-0.823,0-1.623-0.08-2.403-0.229
	c1.625,5.074,6.343,8.771,11.934,8.87c-4.372,3.427-9.88,5.47-15.864,5.47c-1.031,0-2.048-0.061-3.047-0.18
	c5.65,3.628,12.366,5.743,19.58,5.743c23.496,0,36.345-19.466,36.345-36.347c0-0.554-0.012-1.104-0.037-1.651
	C58.385,10.8,60.549,8.551,62.262,5.989z"/>
</svg>
