<?xml version="1.0" encoding="utf-8"?>
<!-- Generator: Adobe Illustrator 16.0.0, SVG Export Plug-In . SVG Version: 6.00 Build 0)  -->
<!DOCTYPE svg PUBLIC "-//W3C//DTD SVG 1.1//EN" "http://www.w3.org/Graphics/SVG/1.1/DTD/svg11.dtd">
<svg version="1.1" id="Layer_1" xmlns="http://www.w3.org/2000/svg" xmlns:xlink="http://www.w3.org/1999/xlink" x="0px" y="0px"
	 width="62.262px" height="50.6px" viewBox="0 21.4 62.262 50.6" enable-background="new 0 21.4 62.262 50.6" xml:space="preserve">
<path fill="#231F20" d="M62.262,27.389c-2.289,1.016-4.752,1.703-7.336,2.012c2.637-1.581,4.662-4.084,5.617-7.067
	c-2.469,1.464-5.203,2.527-8.111,3.1C50.1,22.952,46.782,21.4,43.107,21.4c-7.056,0-12.774,5.719-12.774,12.774
	c0,1,0.113,1.976,0.331,2.911c-10.616-0.533-20.029-5.618-26.329-13.346c-1.1,1.886-1.73,4.081-1.73,6.422
	c0,4.432,2.255,8.341,5.683,10.631c-2.094-0.063-4.063-0.642-5.785-1.597C2.5,39.247,2.5,39.301,2.5,39.355
	c0,6.188,4.403,11.351,10.248,12.524c-1.072,0.292-2.2,0.447-3.366,0.447c-0.823,0-1.623-0.08-2.403-0.229
	c1.625,5.074,6.343,8.77,11.933,8.87c-4.372,3.427-9.88,5.47-15.864,5.47c-1.031,0-2.048-0.061-3.047-0.18
	C5.652,69.885,12.367,72,19.581,72c23.496,0,36.345-19.466,36.345-36.346c0-0.554-0.012-1.104-0.037-1.652
	C58.385,32.2,60.549,29.951,62.262,27.389z"/>
</svg>
